<mxfile host="app.diagrams.net" agent="Mozilla/5.0 (Macintosh; Intel Mac OS X 10_15_7) AppleWebKit/537.36 (KHTML, like Gecko) Chrome/135.0.0.0 Safari/537.36" version="26.2.15">
  <diagram name="Page-1" id="Uy1J4a5kY3tOmCgYg4JC">
    <mxGraphModel dx="2036" dy="1951" grid="1" gridSize="10" guides="1" tooltips="1" connect="1" arrows="1" fold="1" page="1" pageScale="1" pageWidth="827" pageHeight="1169" math="0" shadow="0">
      <root>
        <mxCell id="0" />
        <mxCell id="1" parent="0" />
        <mxCell id="YQrkO79pgG5dtwHYP0iY-6" value="" style="edgeStyle=orthogonalEdgeStyle;rounded=0;orthogonalLoop=1;jettySize=auto;html=1;" edge="1" parent="1" source="YQrkO79pgG5dtwHYP0iY-1" target="YQrkO79pgG5dtwHYP0iY-5">
          <mxGeometry relative="1" as="geometry" />
        </mxCell>
        <mxCell id="YQrkO79pgG5dtwHYP0iY-8" value="" style="edgeStyle=orthogonalEdgeStyle;rounded=0;orthogonalLoop=1;jettySize=auto;html=1;" edge="1" parent="1" source="YQrkO79pgG5dtwHYP0iY-1">
          <mxGeometry relative="1" as="geometry">
            <mxPoint x="214" y="270" as="targetPoint" />
          </mxGeometry>
        </mxCell>
        <mxCell id="YQrkO79pgG5dtwHYP0iY-11" value="" style="edgeStyle=orthogonalEdgeStyle;rounded=0;orthogonalLoop=1;jettySize=auto;html=1;" edge="1" parent="1" source="YQrkO79pgG5dtwHYP0iY-1" target="YQrkO79pgG5dtwHYP0iY-10">
          <mxGeometry relative="1" as="geometry" />
        </mxCell>
        <mxCell id="YQrkO79pgG5dtwHYP0iY-52" value="" style="edgeStyle=orthogonalEdgeStyle;rounded=0;orthogonalLoop=1;jettySize=auto;html=1;" edge="1" parent="1" source="YQrkO79pgG5dtwHYP0iY-1" target="YQrkO79pgG5dtwHYP0iY-51">
          <mxGeometry relative="1" as="geometry" />
        </mxCell>
        <mxCell id="YQrkO79pgG5dtwHYP0iY-1" value="id" style="rounded=1;whiteSpace=wrap;html=1;fillColor=#F8CECC;" vertex="1" parent="1">
          <mxGeometry x="294" y="240" width="120" height="60" as="geometry" />
        </mxCell>
        <mxCell id="YQrkO79pgG5dtwHYP0iY-2" value="&lt;span style=&quot;color: rgb(42, 43, 63); font-family: &amp;quot;Udemy Sans&amp;quot;, &amp;quot;SF Pro Text&amp;quot;, -apple-system, &amp;quot;system-ui&amp;quot;, Roboto, &amp;quot;Segoe UI&amp;quot;, Helvetica, Arial, sans-serif, &amp;quot;Apple Color Emoji&amp;quot;, &amp;quot;Segoe UI Emoji&amp;quot;, &amp;quot;Segoe UI Symbol&amp;quot;; font-size: 17.8519px; text-align: left; background-color: rgb(255, 255, 255);&quot;&gt;W&lt;/span&gt;&lt;span style=&quot;background-color: light-dark(rgb(255, 255, 255), rgb(18, 18, 18)); color: light-dark(rgb(42, 43, 63), rgb(197, 198, 215)); font-family: &amp;quot;Udemy Sans&amp;quot;, &amp;quot;SF Pro Text&amp;quot;, -apple-system, &amp;quot;system-ui&amp;quot;, Roboto, &amp;quot;Segoe UI&amp;quot;, Helvetica, Arial, sans-serif, &amp;quot;Apple Color Emoji&amp;quot;, &amp;quot;Segoe UI Emoji&amp;quot;, &amp;quot;Segoe UI Symbol&amp;quot;; font-size: 17.8519px; text-align: left;&quot;&gt;hat data you will store, and how it will be used in my web application.&lt;/span&gt;" style="text;html=1;align=center;verticalAlign=middle;whiteSpace=wrap;rounded=0;" vertex="1" parent="1">
          <mxGeometry x="-80" y="-80" width="350" height="70" as="geometry" />
        </mxCell>
        <mxCell id="YQrkO79pgG5dtwHYP0iY-33" value="" style="edgeStyle=orthogonalEdgeStyle;rounded=0;orthogonalLoop=1;jettySize=auto;html=1;" edge="1" parent="1" source="YQrkO79pgG5dtwHYP0iY-5" target="YQrkO79pgG5dtwHYP0iY-32">
          <mxGeometry relative="1" as="geometry" />
        </mxCell>
        <mxCell id="YQrkO79pgG5dtwHYP0iY-39" value="" style="edgeStyle=orthogonalEdgeStyle;rounded=0;orthogonalLoop=1;jettySize=auto;html=1;" edge="1" parent="1" source="YQrkO79pgG5dtwHYP0iY-5" target="YQrkO79pgG5dtwHYP0iY-38">
          <mxGeometry relative="1" as="geometry" />
        </mxCell>
        <mxCell id="YQrkO79pgG5dtwHYP0iY-50" value="" style="edgeStyle=orthogonalEdgeStyle;rounded=0;orthogonalLoop=1;jettySize=auto;html=1;" edge="1" parent="1" source="YQrkO79pgG5dtwHYP0iY-5" target="YQrkO79pgG5dtwHYP0iY-49">
          <mxGeometry relative="1" as="geometry" />
        </mxCell>
        <mxCell id="YQrkO79pgG5dtwHYP0iY-5" value="Recipe" style="whiteSpace=wrap;html=1;rounded=1;direction=west;" vertex="1" parent="1">
          <mxGeometry x="294" y="500" width="120" height="60" as="geometry" />
        </mxCell>
        <mxCell id="YQrkO79pgG5dtwHYP0iY-17" value="" style="edgeStyle=orthogonalEdgeStyle;rounded=0;orthogonalLoop=1;jettySize=auto;html=1;" edge="1" parent="1" source="YQrkO79pgG5dtwHYP0iY-10" target="YQrkO79pgG5dtwHYP0iY-16">
          <mxGeometry relative="1" as="geometry" />
        </mxCell>
        <mxCell id="YQrkO79pgG5dtwHYP0iY-29" value="" style="edgeStyle=orthogonalEdgeStyle;rounded=0;orthogonalLoop=1;jettySize=auto;html=1;" edge="1" parent="1" source="YQrkO79pgG5dtwHYP0iY-10" target="YQrkO79pgG5dtwHYP0iY-28">
          <mxGeometry relative="1" as="geometry" />
        </mxCell>
        <mxCell id="YQrkO79pgG5dtwHYP0iY-10" value="Note" style="whiteSpace=wrap;html=1;rounded=1;" vertex="1" parent="1">
          <mxGeometry x="294" y="30" width="120" height="60" as="geometry" />
        </mxCell>
        <mxCell id="YQrkO79pgG5dtwHYP0iY-16" value="Date" style="whiteSpace=wrap;html=1;rounded=1;" vertex="1" parent="1">
          <mxGeometry x="94" y="30" width="120" height="60" as="geometry" />
        </mxCell>
        <mxCell id="YQrkO79pgG5dtwHYP0iY-31" value="" style="edgeStyle=orthogonalEdgeStyle;rounded=0;orthogonalLoop=1;jettySize=auto;html=1;" edge="1" parent="1" source="YQrkO79pgG5dtwHYP0iY-20" target="YQrkO79pgG5dtwHYP0iY-30">
          <mxGeometry relative="1" as="geometry" />
        </mxCell>
        <mxCell id="YQrkO79pgG5dtwHYP0iY-54" value="" style="edgeStyle=orthogonalEdgeStyle;rounded=0;orthogonalLoop=1;jettySize=auto;html=1;" edge="1" parent="1" source="YQrkO79pgG5dtwHYP0iY-20" target="YQrkO79pgG5dtwHYP0iY-53">
          <mxGeometry relative="1" as="geometry" />
        </mxCell>
        <mxCell id="YQrkO79pgG5dtwHYP0iY-62" value="" style="edgeStyle=orthogonalEdgeStyle;rounded=0;orthogonalLoop=1;jettySize=auto;html=1;" edge="1" parent="1" source="YQrkO79pgG5dtwHYP0iY-20" target="YQrkO79pgG5dtwHYP0iY-61">
          <mxGeometry relative="1" as="geometry" />
        </mxCell>
        <mxCell id="YQrkO79pgG5dtwHYP0iY-20" value="Ingredients" style="whiteSpace=wrap;html=1;rounded=1;" vertex="1" parent="1">
          <mxGeometry x="94" y="250" width="120" height="60" as="geometry" />
        </mxCell>
        <mxCell id="YQrkO79pgG5dtwHYP0iY-28" value="F&lt;span style=&quot;background-color: transparent; color: light-dark(rgb(0, 0, 0), rgb(255, 255, 255));&quot;&gt;eedback&lt;/span&gt;" style="whiteSpace=wrap;html=1;rounded=1;" vertex="1" parent="1">
          <mxGeometry x="494" y="30" width="120" height="60" as="geometry" />
        </mxCell>
        <mxCell id="YQrkO79pgG5dtwHYP0iY-30" value="Season" style="whiteSpace=wrap;html=1;rounded=1;fillColor=#E0E0E0;" vertex="1" parent="1">
          <mxGeometry x="-80" y="250" width="120" height="60" as="geometry" />
        </mxCell>
        <mxCell id="YQrkO79pgG5dtwHYP0iY-32" value="Culture" style="whiteSpace=wrap;html=1;rounded=1;" vertex="1" parent="1">
          <mxGeometry x="294" y="640" width="120" height="60" as="geometry" />
        </mxCell>
        <mxCell id="YQrkO79pgG5dtwHYP0iY-34" value="&lt;h1 style=&quot;margin-top: 0px;&quot;&gt;Table separation by&lt;/h1&gt;&lt;p&gt;- Recipe&lt;/p&gt;&lt;p&gt;- Notes and feedback&lt;/p&gt;&lt;p&gt;-Ingredient&amp;nbsp;&lt;/p&gt;&lt;p&gt;&lt;br&gt;&lt;/p&gt;" style="text;html=1;whiteSpace=wrap;overflow=hidden;rounded=0;" vertex="1" parent="1">
          <mxGeometry x="-220" y="-370" width="220" height="210" as="geometry" />
        </mxCell>
        <mxCell id="YQrkO79pgG5dtwHYP0iY-35" value="&lt;h1 style=&quot;margin-top: 0px;&quot;&gt;Overview&lt;/h1&gt;&lt;div&gt;1. &lt;font style=&quot;font-size: 13px;&quot;&gt;Initial folder setup and draw diagram&lt;/font&gt;&lt;/div&gt;&lt;div&gt;&lt;font style=&quot;font-size: 13px;&quot;&gt;2. setup database and connect to bked (For stage 1, to keep it simple, just recipe, image and note; For stage 2, add ingredients)&lt;/font&gt;&lt;/div&gt;&lt;div&gt;&lt;font style=&quot;font-size: 13px;&quot;&gt;3. setup fted EJS &amp;amp; create a frontend in html, css snd js&lt;/font&gt;&lt;/div&gt;&lt;div&gt;&lt;font style=&quot;font-size: 13px;&quot;&gt;4.&amp;nbsp;&lt;span style=&quot;background-color: transparent; color: light-dark(rgb(0, 0, 0), rgb(255, 255, 255));&quot;&gt;&amp;nbsp;&lt;/span&gt;&lt;span style=&quot;background-color: transparent; color: light-dark(rgb(0, 0, 0), rgb(255, 255, 255));&quot;&gt;API Integration&amp;nbsp;&lt;/span&gt;&lt;/font&gt;&lt;/div&gt;&lt;div&gt;&lt;font style=&quot;font-size: 13px;&quot;&gt;&lt;span style=&quot;background-color: transparent; color: light-dark(rgb(0, 0, 0), rgb(255, 255, 255));&quot;&gt;&lt;font style=&quot;&quot;&gt;&lt;span style=&quot;white-space: pre;&quot;&gt;&#x9;&lt;/span&gt;-&lt;/font&gt;&lt;/span&gt;&lt;span style=&quot;background-color: rgb(255, 255, 255); color: rgb(42, 43, 63); font-family: &amp;quot;Udemy Sans&amp;quot;, &amp;quot;SF Pro Text&amp;quot;, -apple-system, &amp;quot;system-ui&amp;quot;, Roboto, &amp;quot;Segoe UI&amp;quot;, Helvetica, Arial, sans-serif, &amp;quot;Apple Color Emoji&amp;quot;, &amp;quot;Segoe UI Emoji&amp;quot;, &amp;quot;Segoe UI Symbol&amp;quot;;&quot;&gt;&lt;font style=&quot;&quot;&gt;at least a GET&amp;nbsp;endpoint to interact with your chosen API&lt;/font&gt;&lt;/span&gt;&lt;span style=&quot;background-color: transparent; color: light-dark(rgb(0, 0, 0), rgb(255, 255, 255));&quot;&gt;&lt;br&gt;&lt;/span&gt;&lt;/font&gt;&lt;/div&gt;&lt;div&gt;&lt;span style=&quot;background-color: rgb(255, 255, 255); color: rgb(42, 43, 63); font-family: &amp;quot;Udemy Sans&amp;quot;, &amp;quot;SF Pro Text&amp;quot;, -apple-system, &amp;quot;system-ui&amp;quot;, Roboto, &amp;quot;Segoe UI&amp;quot;, Helvetica, Arial, sans-serif, &amp;quot;Apple Color Emoji&amp;quot;, &amp;quot;Segoe UI Emoji&amp;quot;, &amp;quot;Segoe UI Symbol&amp;quot;;&quot;&gt;&lt;font style=&quot;font-size: 13px;&quot;&gt;&lt;span style=&quot;white-space: pre;&quot;&gt;&#x9;&lt;/span&gt;-&lt;font style=&quot;&quot;&gt;Use Axios to send HTTP requests to the API and handle responses&lt;/font&gt;&lt;br&gt;&lt;/font&gt;&lt;/span&gt;&lt;/div&gt;&lt;div&gt;&lt;span style=&quot;background-color: rgb(255, 255, 255); color: rgb(42, 43, 63); font-family: &amp;quot;Udemy Sans&amp;quot;, &amp;quot;SF Pro Text&amp;quot;, -apple-system, &amp;quot;system-ui&amp;quot;, Roboto, &amp;quot;Segoe UI&amp;quot;, Helvetica, Arial, sans-serif, &amp;quot;Apple Color Emoji&amp;quot;, &amp;quot;Segoe UI Emoji&amp;quot;, &amp;quot;Segoe UI Symbol&amp;quot;;&quot;&gt;&lt;font style=&quot;&quot;&gt;&lt;font style=&quot;font-size: 13px;&quot;&gt;5. Data presentation&amp;nbsp;&lt;/font&gt;&lt;/font&gt;&lt;/span&gt;&lt;/div&gt;&lt;div&gt;&lt;font style=&quot;font-size: 13px;&quot;&gt;&lt;span style=&quot;background-color: rgb(255, 255, 255); color: rgb(42, 43, 63); font-family: &amp;quot;Udemy Sans&amp;quot;, &amp;quot;SF Pro Text&amp;quot;, -apple-system, &amp;quot;system-ui&amp;quot;, Roboto, &amp;quot;Segoe UI&amp;quot;, Helvetica, Arial, sans-serif, &amp;quot;Apple Color Emoji&amp;quot;, &amp;quot;Segoe UI Emoji&amp;quot;, &amp;quot;Segoe UI Symbol&amp;quot;;&quot;&gt;&lt;font style=&quot;&quot;&gt;&lt;font style=&quot;&quot;&gt;&lt;span style=&quot;white-space: pre;&quot;&gt;&#x9;&lt;/span&gt;-&lt;/font&gt;&lt;/font&gt;&lt;/span&gt;&lt;span style=&quot;background-color: light-dark(rgb(255, 255, 255), rgb(18, 18, 18)); font-family: &amp;quot;Udemy Sans&amp;quot;, &amp;quot;SF Pro Text&amp;quot;, -apple-system, &amp;quot;system-ui&amp;quot;, Roboto, &amp;quot;Segoe UI&amp;quot;, Helvetica, Arial, sans-serif, &amp;quot;Apple Color Emoji&amp;quot;, &amp;quot;Segoe UI Emoji&amp;quot;, &amp;quot;Segoe UI Symbol&amp;quot;;&quot;&gt;&lt;font style=&quot;color: light-dark(rgb(234, 107, 102), rgb(197, 198, 215));&quot;&gt;Design the application to present &lt;/font&gt;&lt;/span&gt;&lt;span style=&quot;background-color: light-dark(rgb(255, 255, 255), rgb(18, 18, 18)); color: light-dark(rgb(42, 43, 63), rgb(197, 198, 215)); font-family: &amp;quot;Udemy Sans&amp;quot;, &amp;quot;SF Pro Text&amp;quot;, -apple-system, &amp;quot;system-ui&amp;quot;, Roboto, &amp;quot;Segoe UI&amp;quot;, Helvetica, Arial, sans-serif, &amp;quot;Apple Color Emoji&amp;quot;, &amp;quot;Segoe UI Emoji&amp;quot;, &amp;quot;Segoe UI Symbol&amp;quot;;&quot;&gt;the recipe images from the API and the data in your database a in a user-friendly way.&lt;/span&gt;&lt;/font&gt;&lt;/div&gt;&lt;font style=&quot;font-size: 13px;&quot;&gt;&lt;span style=&quot;background-color: light-dark(rgb(255, 255, 255), rgb(18, 18, 18)); color: light-dark(rgb(42, 43, 63), rgb(197, 198, 215)); font-family: &amp;quot;Udemy Sans&amp;quot;, &amp;quot;SF Pro Text&amp;quot;, -apple-system, &amp;quot;system-ui&amp;quot;, Roboto, &amp;quot;Segoe UI&amp;quot;, Helvetica, Arial, sans-serif, &amp;quot;Apple Color Emoji&amp;quot;, &amp;quot;Segoe UI Emoji&amp;quot;, &amp;quot;Segoe UI Symbol&amp;quot;;&quot;&gt;&lt;span style=&quot;white-space: pre;&quot;&gt;&#x9;&lt;/span&gt;-Use appropriate HTML, CSS, and a templating engine like EJS.&lt;/span&gt;&lt;br&gt;&lt;font style=&quot;color: light-dark(rgb(42, 43, 63), rgb(197, 198, 215)); font-family: &amp;quot;Udemy Sans&amp;quot;, &amp;quot;SF Pro Text&amp;quot;, -apple-system, &amp;quot;system-ui&amp;quot;, Roboto, &amp;quot;Segoe UI&amp;quot;, Helvetica, Arial, sans-serif, &amp;quot;Apple Color Emoji&amp;quot;, &amp;quot;Segoe UI Emoji&amp;quot;, &amp;quot;Segoe UI Symbol&amp;quot;; background-color: light-dark(rgb(255, 255, 255), rgb(18, 18, 18));&quot;&gt;&lt;span style=&quot;white-space: pre;&quot;&gt;&#x9;&lt;/span&gt;-&lt;/font&gt;&lt;span style=&quot;color: light-dark(rgb(42, 43, 63), rgb(197, 198, 215)); font-family: &amp;quot;Udemy Sans&amp;quot;, &amp;quot;SF Pro Text&amp;quot;, -apple-system, &amp;quot;system-ui&amp;quot;, Roboto, &amp;quot;Segoe UI&amp;quot;, Helvetica, Arial, sans-serif, &amp;quot;Apple Color Emoji&amp;quot;, &amp;quot;Segoe UI Emoji&amp;quot;, &amp;quot;Segoe UI Symbol&amp;quot;; background-color: light-dark(rgb(255, 255, 255), rgb(18, 18, 18));&quot;&gt;Think about how you would allow the user to sort the data from the database.&lt;/span&gt;&lt;/font&gt;&lt;div&gt;&lt;font style=&quot;font-size: 11px;&quot; face=&quot;Udemy Sans, SF Pro Text, -apple-system, system-ui, Roboto, Segoe UI, Helvetica, Arial, sans-serif, Apple Color Emoji, Segoe UI Emoji, Segoe UI Symbol&quot; color=&quot;#2a2b3f&quot;&gt;&lt;br&gt;&lt;/font&gt;&lt;div&gt;&lt;span style=&quot;color: light-dark(rgb(42, 43, 63), rgb(197, 198, 215)); font-family: &amp;quot;Udemy Sans&amp;quot;, &amp;quot;SF Pro Text&amp;quot;, -apple-system, &amp;quot;system-ui&amp;quot;, Roboto, &amp;quot;Segoe UI&amp;quot;, Helvetica, Arial, sans-serif, &amp;quot;Apple Color Emoji&amp;quot;, &amp;quot;Segoe UI Emoji&amp;quot;, &amp;quot;Segoe UI Symbol&amp;quot;; background-color: light-dark(rgb(255, 255, 255), rgb(18, 18, 18)); font-size: 9px;&quot;&gt;&lt;br&gt;&lt;/span&gt;&lt;/div&gt;&lt;/div&gt;" style="text;html=1;whiteSpace=wrap;overflow=hidden;rounded=0;" vertex="1" parent="1">
          <mxGeometry x="-236" y="-650" width="780" height="230" as="geometry" />
        </mxCell>
        <mxCell id="YQrkO79pgG5dtwHYP0iY-38" value="CookTime(mins)" style="whiteSpace=wrap;html=1;rounded=1;" vertex="1" parent="1">
          <mxGeometry x="80" y="500" width="120" height="60" as="geometry" />
        </mxCell>
        <mxCell id="YQrkO79pgG5dtwHYP0iY-49" value="Title" style="whiteSpace=wrap;html=1;rounded=1;" vertex="1" parent="1">
          <mxGeometry x="494" y="500" width="120" height="60" as="geometry" />
        </mxCell>
        <mxCell id="YQrkO79pgG5dtwHYP0iY-56" value="" style="edgeStyle=orthogonalEdgeStyle;rounded=0;orthogonalLoop=1;jettySize=auto;html=1;" edge="1" parent="1" source="YQrkO79pgG5dtwHYP0iY-51" target="YQrkO79pgG5dtwHYP0iY-55">
          <mxGeometry relative="1" as="geometry" />
        </mxCell>
        <mxCell id="YQrkO79pgG5dtwHYP0iY-58" value="" style="edgeStyle=orthogonalEdgeStyle;rounded=0;orthogonalLoop=1;jettySize=auto;html=1;" edge="1" parent="1" source="YQrkO79pgG5dtwHYP0iY-51" target="YQrkO79pgG5dtwHYP0iY-57">
          <mxGeometry relative="1" as="geometry" />
        </mxCell>
        <mxCell id="YQrkO79pgG5dtwHYP0iY-60" value="" style="edgeStyle=orthogonalEdgeStyle;rounded=0;orthogonalLoop=1;jettySize=auto;html=1;" edge="1" parent="1" source="YQrkO79pgG5dtwHYP0iY-51" target="YQrkO79pgG5dtwHYP0iY-59">
          <mxGeometry relative="1" as="geometry" />
        </mxCell>
        <mxCell id="YQrkO79pgG5dtwHYP0iY-51" value="recipe_ingredients&lt;div&gt;(many:many)&lt;/div&gt;" style="whiteSpace=wrap;html=1;rounded=1;" vertex="1" parent="1">
          <mxGeometry x="494" y="240" width="120" height="60" as="geometry" />
        </mxCell>
        <mxCell id="YQrkO79pgG5dtwHYP0iY-53" value="name" style="whiteSpace=wrap;html=1;rounded=1;" vertex="1" parent="1">
          <mxGeometry x="94" y="110" width="120" height="60" as="geometry" />
        </mxCell>
        <mxCell id="YQrkO79pgG5dtwHYP0iY-55" value="recipe&lt;span style=&quot;background-color: transparent; color: light-dark(rgb(0, 0, 0), rgb(255, 255, 255));&quot;&gt;_id&lt;/span&gt;" style="whiteSpace=wrap;html=1;rounded=1;fillColor=#F8CECC;" vertex="1" parent="1">
          <mxGeometry x="494" y="100" width="120" height="60" as="geometry" />
        </mxCell>
        <mxCell id="YQrkO79pgG5dtwHYP0iY-57" value="ingredient_id" style="whiteSpace=wrap;html=1;rounded=1;fillColor=#D5E8D4;" vertex="1" parent="1">
          <mxGeometry x="694" y="240" width="120" height="60" as="geometry" />
        </mxCell>
        <mxCell id="YQrkO79pgG5dtwHYP0iY-59" value="quantity" style="whiteSpace=wrap;html=1;rounded=1;" vertex="1" parent="1">
          <mxGeometry x="494" y="380" width="120" height="60" as="geometry" />
        </mxCell>
        <mxCell id="YQrkO79pgG5dtwHYP0iY-61" value="ingredient_id" style="whiteSpace=wrap;html=1;rounded=1;fillColor=#D5E8D4;" vertex="1" parent="1">
          <mxGeometry x="94" y="390" width="120" height="60" as="geometry" />
        </mxCell>
        <mxCell id="YQrkO79pgG5dtwHYP0iY-63" value="&lt;h1 style=&quot;margin-top: 0px;&quot;&gt;API&amp;nbsp;&lt;/h1&gt;&lt;div&gt;- Instruction&lt;/div&gt;&lt;div&gt;- Image&lt;/div&gt;" style="text;html=1;whiteSpace=wrap;overflow=hidden;rounded=0;" vertex="1" parent="1">
          <mxGeometry x="80" y="-370" width="180" height="130" as="geometry" />
        </mxCell>
      </root>
    </mxGraphModel>
  </diagram>
</mxfile>
